%TF.GenerationSoftware,KiCad,Pcbnew,8.0.7-8.0.7-0~ubuntu24.04.1*%
%TF.CreationDate,2025-01-06T19:00:17+09:00*%
%TF.ProjectId,TutorialBoard2025,5475746f-7269-4616-9c42-6f6172643230,rev?*%
%TF.SameCoordinates,Original*%
%TF.FileFunction,Profile,NP*%
%FSLAX46Y46*%
G04 Gerber Fmt 4.6, Leading zero omitted, Abs format (unit mm)*
G04 Created by KiCad (PCBNEW 8.0.7-8.0.7-0~ubuntu24.04.1) date 2025-01-06 19:00:17*
%MOMM*%
%LPD*%
G01*
G04 APERTURE LIST*
%ADD10C,0.150000*%
%TA.AperFunction,Profile*%
%ADD11C,0.050000*%
%TD*%
G04 APERTURE END LIST*
D10*
X145304819Y-59666665D02*
X145304819Y-58999999D01*
X145304819Y-58999999D02*
X146304819Y-59428570D01*
X145304819Y-58428570D02*
X145304819Y-58333332D01*
X145304819Y-58333332D02*
X145352438Y-58238094D01*
X145352438Y-58238094D02*
X145400057Y-58190475D01*
X145400057Y-58190475D02*
X145495295Y-58142856D01*
X145495295Y-58142856D02*
X145685771Y-58095237D01*
X145685771Y-58095237D02*
X145923866Y-58095237D01*
X145923866Y-58095237D02*
X146114342Y-58142856D01*
X146114342Y-58142856D02*
X146209580Y-58190475D01*
X146209580Y-58190475D02*
X146257200Y-58238094D01*
X146257200Y-58238094D02*
X146304819Y-58333332D01*
X146304819Y-58333332D02*
X146304819Y-58428570D01*
X146304819Y-58428570D02*
X146257200Y-58523808D01*
X146257200Y-58523808D02*
X146209580Y-58571427D01*
X146209580Y-58571427D02*
X146114342Y-58619046D01*
X146114342Y-58619046D02*
X145923866Y-58666665D01*
X145923866Y-58666665D02*
X145685771Y-58666665D01*
X145685771Y-58666665D02*
X145495295Y-58619046D01*
X145495295Y-58619046D02*
X145400057Y-58571427D01*
X145400057Y-58571427D02*
X145352438Y-58523808D01*
X145352438Y-58523808D02*
X145304819Y-58428570D01*
X146209580Y-57666665D02*
X146257200Y-57619046D01*
X146257200Y-57619046D02*
X146304819Y-57666665D01*
X146304819Y-57666665D02*
X146257200Y-57714284D01*
X146257200Y-57714284D02*
X146209580Y-57666665D01*
X146209580Y-57666665D02*
X146304819Y-57666665D01*
X145304819Y-56999999D02*
X145304819Y-56904761D01*
X145304819Y-56904761D02*
X145352438Y-56809523D01*
X145352438Y-56809523D02*
X145400057Y-56761904D01*
X145400057Y-56761904D02*
X145495295Y-56714285D01*
X145495295Y-56714285D02*
X145685771Y-56666666D01*
X145685771Y-56666666D02*
X145923866Y-56666666D01*
X145923866Y-56666666D02*
X146114342Y-56714285D01*
X146114342Y-56714285D02*
X146209580Y-56761904D01*
X146209580Y-56761904D02*
X146257200Y-56809523D01*
X146257200Y-56809523D02*
X146304819Y-56904761D01*
X146304819Y-56904761D02*
X146304819Y-56999999D01*
X146304819Y-56999999D02*
X146257200Y-57095237D01*
X146257200Y-57095237D02*
X146209580Y-57142856D01*
X146209580Y-57142856D02*
X146114342Y-57190475D01*
X146114342Y-57190475D02*
X145923866Y-57238094D01*
X145923866Y-57238094D02*
X145685771Y-57238094D01*
X145685771Y-57238094D02*
X145495295Y-57190475D01*
X145495295Y-57190475D02*
X145400057Y-57142856D01*
X145400057Y-57142856D02*
X145352438Y-57095237D01*
X145352438Y-57095237D02*
X145304819Y-56999999D01*
X145304819Y-56047618D02*
X145304819Y-55952380D01*
X145304819Y-55952380D02*
X145352438Y-55857142D01*
X145352438Y-55857142D02*
X145400057Y-55809523D01*
X145400057Y-55809523D02*
X145495295Y-55761904D01*
X145495295Y-55761904D02*
X145685771Y-55714285D01*
X145685771Y-55714285D02*
X145923866Y-55714285D01*
X145923866Y-55714285D02*
X146114342Y-55761904D01*
X146114342Y-55761904D02*
X146209580Y-55809523D01*
X146209580Y-55809523D02*
X146257200Y-55857142D01*
X146257200Y-55857142D02*
X146304819Y-55952380D01*
X146304819Y-55952380D02*
X146304819Y-56047618D01*
X146304819Y-56047618D02*
X146257200Y-56142856D01*
X146257200Y-56142856D02*
X146209580Y-56190475D01*
X146209580Y-56190475D02*
X146114342Y-56238094D01*
X146114342Y-56238094D02*
X145923866Y-56285713D01*
X145923866Y-56285713D02*
X145685771Y-56285713D01*
X145685771Y-56285713D02*
X145495295Y-56238094D01*
X145495295Y-56238094D02*
X145400057Y-56190475D01*
X145400057Y-56190475D02*
X145352438Y-56142856D01*
X145352438Y-56142856D02*
X145304819Y-56047618D01*
X145304819Y-55095237D02*
X145304819Y-54999999D01*
X145304819Y-54999999D02*
X145352438Y-54904761D01*
X145352438Y-54904761D02*
X145400057Y-54857142D01*
X145400057Y-54857142D02*
X145495295Y-54809523D01*
X145495295Y-54809523D02*
X145685771Y-54761904D01*
X145685771Y-54761904D02*
X145923866Y-54761904D01*
X145923866Y-54761904D02*
X146114342Y-54809523D01*
X146114342Y-54809523D02*
X146209580Y-54857142D01*
X146209580Y-54857142D02*
X146257200Y-54904761D01*
X146257200Y-54904761D02*
X146304819Y-54999999D01*
X146304819Y-54999999D02*
X146304819Y-55095237D01*
X146304819Y-55095237D02*
X146257200Y-55190475D01*
X146257200Y-55190475D02*
X146209580Y-55238094D01*
X146209580Y-55238094D02*
X146114342Y-55285713D01*
X146114342Y-55285713D02*
X145923866Y-55333332D01*
X145923866Y-55333332D02*
X145685771Y-55333332D01*
X145685771Y-55333332D02*
X145495295Y-55285713D01*
X145495295Y-55285713D02*
X145400057Y-55238094D01*
X145400057Y-55238094D02*
X145352438Y-55190475D01*
X145352438Y-55190475D02*
X145304819Y-55095237D01*
X145304819Y-54142856D02*
X145304819Y-54047618D01*
X145304819Y-54047618D02*
X145352438Y-53952380D01*
X145352438Y-53952380D02*
X145400057Y-53904761D01*
X145400057Y-53904761D02*
X145495295Y-53857142D01*
X145495295Y-53857142D02*
X145685771Y-53809523D01*
X145685771Y-53809523D02*
X145923866Y-53809523D01*
X145923866Y-53809523D02*
X146114342Y-53857142D01*
X146114342Y-53857142D02*
X146209580Y-53904761D01*
X146209580Y-53904761D02*
X146257200Y-53952380D01*
X146257200Y-53952380D02*
X146304819Y-54047618D01*
X146304819Y-54047618D02*
X146304819Y-54142856D01*
X146304819Y-54142856D02*
X146257200Y-54238094D01*
X146257200Y-54238094D02*
X146209580Y-54285713D01*
X146209580Y-54285713D02*
X146114342Y-54333332D01*
X146114342Y-54333332D02*
X145923866Y-54380951D01*
X145923866Y-54380951D02*
X145685771Y-54380951D01*
X145685771Y-54380951D02*
X145495295Y-54333332D01*
X145495295Y-54333332D02*
X145400057Y-54285713D01*
X145400057Y-54285713D02*
X145352438Y-54238094D01*
X145352438Y-54238094D02*
X145304819Y-54142856D01*
X146304819Y-52619046D02*
X145638152Y-52619046D01*
X145733390Y-52619046D02*
X145685771Y-52571427D01*
X145685771Y-52571427D02*
X145638152Y-52476189D01*
X145638152Y-52476189D02*
X145638152Y-52333332D01*
X145638152Y-52333332D02*
X145685771Y-52238094D01*
X145685771Y-52238094D02*
X145781009Y-52190475D01*
X145781009Y-52190475D02*
X146304819Y-52190475D01*
X145781009Y-52190475D02*
X145685771Y-52142856D01*
X145685771Y-52142856D02*
X145638152Y-52047618D01*
X145638152Y-52047618D02*
X145638152Y-51904761D01*
X145638152Y-51904761D02*
X145685771Y-51809522D01*
X145685771Y-51809522D02*
X145781009Y-51761903D01*
X145781009Y-51761903D02*
X146304819Y-51761903D01*
X146304819Y-51285713D02*
X145638152Y-51285713D01*
X145733390Y-51285713D02*
X145685771Y-51238094D01*
X145685771Y-51238094D02*
X145638152Y-51142856D01*
X145638152Y-51142856D02*
X145638152Y-50999999D01*
X145638152Y-50999999D02*
X145685771Y-50904761D01*
X145685771Y-50904761D02*
X145781009Y-50857142D01*
X145781009Y-50857142D02*
X146304819Y-50857142D01*
X145781009Y-50857142D02*
X145685771Y-50809523D01*
X145685771Y-50809523D02*
X145638152Y-50714285D01*
X145638152Y-50714285D02*
X145638152Y-50571428D01*
X145638152Y-50571428D02*
X145685771Y-50476189D01*
X145685771Y-50476189D02*
X145781009Y-50428570D01*
X145781009Y-50428570D02*
X146304819Y-50428570D01*
D11*
X140500000Y-90000000D02*
X147586420Y-90000000D01*
X140500000Y-20000000D02*
X147586420Y-20000000D01*
X147000000Y-90000000D02*
X147000000Y-20000000D01*
X147000000Y-90000000D02*
X147000000Y-20000000D01*
X147000000Y-90000000D02*
X146413579Y-88873496D01*
X147000000Y-90000000D02*
X147586421Y-88873496D01*
X147000000Y-20000000D02*
X147586421Y-21126504D01*
X147000000Y-20000000D02*
X146413579Y-21126504D01*
D10*
X95571429Y-92733390D02*
X95476191Y-92685771D01*
X95476191Y-92685771D02*
X95428572Y-92638152D01*
X95428572Y-92638152D02*
X95380953Y-92542914D01*
X95380953Y-92542914D02*
X95380953Y-92495295D01*
X95380953Y-92495295D02*
X95428572Y-92400057D01*
X95428572Y-92400057D02*
X95476191Y-92352438D01*
X95476191Y-92352438D02*
X95571429Y-92304819D01*
X95571429Y-92304819D02*
X95761905Y-92304819D01*
X95761905Y-92304819D02*
X95857143Y-92352438D01*
X95857143Y-92352438D02*
X95904762Y-92400057D01*
X95904762Y-92400057D02*
X95952381Y-92495295D01*
X95952381Y-92495295D02*
X95952381Y-92542914D01*
X95952381Y-92542914D02*
X95904762Y-92638152D01*
X95904762Y-92638152D02*
X95857143Y-92685771D01*
X95857143Y-92685771D02*
X95761905Y-92733390D01*
X95761905Y-92733390D02*
X95571429Y-92733390D01*
X95571429Y-92733390D02*
X95476191Y-92781009D01*
X95476191Y-92781009D02*
X95428572Y-92828628D01*
X95428572Y-92828628D02*
X95380953Y-92923866D01*
X95380953Y-92923866D02*
X95380953Y-93114342D01*
X95380953Y-93114342D02*
X95428572Y-93209580D01*
X95428572Y-93209580D02*
X95476191Y-93257200D01*
X95476191Y-93257200D02*
X95571429Y-93304819D01*
X95571429Y-93304819D02*
X95761905Y-93304819D01*
X95761905Y-93304819D02*
X95857143Y-93257200D01*
X95857143Y-93257200D02*
X95904762Y-93209580D01*
X95904762Y-93209580D02*
X95952381Y-93114342D01*
X95952381Y-93114342D02*
X95952381Y-92923866D01*
X95952381Y-92923866D02*
X95904762Y-92828628D01*
X95904762Y-92828628D02*
X95857143Y-92781009D01*
X95857143Y-92781009D02*
X95761905Y-92733390D01*
X96571429Y-92304819D02*
X96666667Y-92304819D01*
X96666667Y-92304819D02*
X96761905Y-92352438D01*
X96761905Y-92352438D02*
X96809524Y-92400057D01*
X96809524Y-92400057D02*
X96857143Y-92495295D01*
X96857143Y-92495295D02*
X96904762Y-92685771D01*
X96904762Y-92685771D02*
X96904762Y-92923866D01*
X96904762Y-92923866D02*
X96857143Y-93114342D01*
X96857143Y-93114342D02*
X96809524Y-93209580D01*
X96809524Y-93209580D02*
X96761905Y-93257200D01*
X96761905Y-93257200D02*
X96666667Y-93304819D01*
X96666667Y-93304819D02*
X96571429Y-93304819D01*
X96571429Y-93304819D02*
X96476191Y-93257200D01*
X96476191Y-93257200D02*
X96428572Y-93209580D01*
X96428572Y-93209580D02*
X96380953Y-93114342D01*
X96380953Y-93114342D02*
X96333334Y-92923866D01*
X96333334Y-92923866D02*
X96333334Y-92685771D01*
X96333334Y-92685771D02*
X96380953Y-92495295D01*
X96380953Y-92495295D02*
X96428572Y-92400057D01*
X96428572Y-92400057D02*
X96476191Y-92352438D01*
X96476191Y-92352438D02*
X96571429Y-92304819D01*
X97333334Y-93209580D02*
X97380953Y-93257200D01*
X97380953Y-93257200D02*
X97333334Y-93304819D01*
X97333334Y-93304819D02*
X97285715Y-93257200D01*
X97285715Y-93257200D02*
X97333334Y-93209580D01*
X97333334Y-93209580D02*
X97333334Y-93304819D01*
X98000000Y-92304819D02*
X98095238Y-92304819D01*
X98095238Y-92304819D02*
X98190476Y-92352438D01*
X98190476Y-92352438D02*
X98238095Y-92400057D01*
X98238095Y-92400057D02*
X98285714Y-92495295D01*
X98285714Y-92495295D02*
X98333333Y-92685771D01*
X98333333Y-92685771D02*
X98333333Y-92923866D01*
X98333333Y-92923866D02*
X98285714Y-93114342D01*
X98285714Y-93114342D02*
X98238095Y-93209580D01*
X98238095Y-93209580D02*
X98190476Y-93257200D01*
X98190476Y-93257200D02*
X98095238Y-93304819D01*
X98095238Y-93304819D02*
X98000000Y-93304819D01*
X98000000Y-93304819D02*
X97904762Y-93257200D01*
X97904762Y-93257200D02*
X97857143Y-93209580D01*
X97857143Y-93209580D02*
X97809524Y-93114342D01*
X97809524Y-93114342D02*
X97761905Y-92923866D01*
X97761905Y-92923866D02*
X97761905Y-92685771D01*
X97761905Y-92685771D02*
X97809524Y-92495295D01*
X97809524Y-92495295D02*
X97857143Y-92400057D01*
X97857143Y-92400057D02*
X97904762Y-92352438D01*
X97904762Y-92352438D02*
X98000000Y-92304819D01*
X98952381Y-92304819D02*
X99047619Y-92304819D01*
X99047619Y-92304819D02*
X99142857Y-92352438D01*
X99142857Y-92352438D02*
X99190476Y-92400057D01*
X99190476Y-92400057D02*
X99238095Y-92495295D01*
X99238095Y-92495295D02*
X99285714Y-92685771D01*
X99285714Y-92685771D02*
X99285714Y-92923866D01*
X99285714Y-92923866D02*
X99238095Y-93114342D01*
X99238095Y-93114342D02*
X99190476Y-93209580D01*
X99190476Y-93209580D02*
X99142857Y-93257200D01*
X99142857Y-93257200D02*
X99047619Y-93304819D01*
X99047619Y-93304819D02*
X98952381Y-93304819D01*
X98952381Y-93304819D02*
X98857143Y-93257200D01*
X98857143Y-93257200D02*
X98809524Y-93209580D01*
X98809524Y-93209580D02*
X98761905Y-93114342D01*
X98761905Y-93114342D02*
X98714286Y-92923866D01*
X98714286Y-92923866D02*
X98714286Y-92685771D01*
X98714286Y-92685771D02*
X98761905Y-92495295D01*
X98761905Y-92495295D02*
X98809524Y-92400057D01*
X98809524Y-92400057D02*
X98857143Y-92352438D01*
X98857143Y-92352438D02*
X98952381Y-92304819D01*
X99904762Y-92304819D02*
X100000000Y-92304819D01*
X100000000Y-92304819D02*
X100095238Y-92352438D01*
X100095238Y-92352438D02*
X100142857Y-92400057D01*
X100142857Y-92400057D02*
X100190476Y-92495295D01*
X100190476Y-92495295D02*
X100238095Y-92685771D01*
X100238095Y-92685771D02*
X100238095Y-92923866D01*
X100238095Y-92923866D02*
X100190476Y-93114342D01*
X100190476Y-93114342D02*
X100142857Y-93209580D01*
X100142857Y-93209580D02*
X100095238Y-93257200D01*
X100095238Y-93257200D02*
X100000000Y-93304819D01*
X100000000Y-93304819D02*
X99904762Y-93304819D01*
X99904762Y-93304819D02*
X99809524Y-93257200D01*
X99809524Y-93257200D02*
X99761905Y-93209580D01*
X99761905Y-93209580D02*
X99714286Y-93114342D01*
X99714286Y-93114342D02*
X99666667Y-92923866D01*
X99666667Y-92923866D02*
X99666667Y-92685771D01*
X99666667Y-92685771D02*
X99714286Y-92495295D01*
X99714286Y-92495295D02*
X99761905Y-92400057D01*
X99761905Y-92400057D02*
X99809524Y-92352438D01*
X99809524Y-92352438D02*
X99904762Y-92304819D01*
X100857143Y-92304819D02*
X100952381Y-92304819D01*
X100952381Y-92304819D02*
X101047619Y-92352438D01*
X101047619Y-92352438D02*
X101095238Y-92400057D01*
X101095238Y-92400057D02*
X101142857Y-92495295D01*
X101142857Y-92495295D02*
X101190476Y-92685771D01*
X101190476Y-92685771D02*
X101190476Y-92923866D01*
X101190476Y-92923866D02*
X101142857Y-93114342D01*
X101142857Y-93114342D02*
X101095238Y-93209580D01*
X101095238Y-93209580D02*
X101047619Y-93257200D01*
X101047619Y-93257200D02*
X100952381Y-93304819D01*
X100952381Y-93304819D02*
X100857143Y-93304819D01*
X100857143Y-93304819D02*
X100761905Y-93257200D01*
X100761905Y-93257200D02*
X100714286Y-93209580D01*
X100714286Y-93209580D02*
X100666667Y-93114342D01*
X100666667Y-93114342D02*
X100619048Y-92923866D01*
X100619048Y-92923866D02*
X100619048Y-92685771D01*
X100619048Y-92685771D02*
X100666667Y-92495295D01*
X100666667Y-92495295D02*
X100714286Y-92400057D01*
X100714286Y-92400057D02*
X100761905Y-92352438D01*
X100761905Y-92352438D02*
X100857143Y-92304819D01*
X102380953Y-93304819D02*
X102380953Y-92638152D01*
X102380953Y-92733390D02*
X102428572Y-92685771D01*
X102428572Y-92685771D02*
X102523810Y-92638152D01*
X102523810Y-92638152D02*
X102666667Y-92638152D01*
X102666667Y-92638152D02*
X102761905Y-92685771D01*
X102761905Y-92685771D02*
X102809524Y-92781009D01*
X102809524Y-92781009D02*
X102809524Y-93304819D01*
X102809524Y-92781009D02*
X102857143Y-92685771D01*
X102857143Y-92685771D02*
X102952381Y-92638152D01*
X102952381Y-92638152D02*
X103095238Y-92638152D01*
X103095238Y-92638152D02*
X103190477Y-92685771D01*
X103190477Y-92685771D02*
X103238096Y-92781009D01*
X103238096Y-92781009D02*
X103238096Y-93304819D01*
X103714286Y-93304819D02*
X103714286Y-92638152D01*
X103714286Y-92733390D02*
X103761905Y-92685771D01*
X103761905Y-92685771D02*
X103857143Y-92638152D01*
X103857143Y-92638152D02*
X104000000Y-92638152D01*
X104000000Y-92638152D02*
X104095238Y-92685771D01*
X104095238Y-92685771D02*
X104142857Y-92781009D01*
X104142857Y-92781009D02*
X104142857Y-93304819D01*
X104142857Y-92781009D02*
X104190476Y-92685771D01*
X104190476Y-92685771D02*
X104285714Y-92638152D01*
X104285714Y-92638152D02*
X104428571Y-92638152D01*
X104428571Y-92638152D02*
X104523810Y-92685771D01*
X104523810Y-92685771D02*
X104571429Y-92781009D01*
X104571429Y-92781009D02*
X104571429Y-93304819D01*
D11*
X60000000Y-90500000D02*
X60000000Y-94586420D01*
X140000000Y-90500000D02*
X140000000Y-94586420D01*
X60000000Y-94000000D02*
X140000000Y-94000000D01*
X60000000Y-94000000D02*
X140000000Y-94000000D01*
X60000000Y-94000000D02*
X61126504Y-93413579D01*
X60000000Y-94000000D02*
X61126504Y-94586421D01*
X140000000Y-94000000D02*
X138873496Y-94586421D01*
X140000000Y-94000000D02*
X138873496Y-93413579D01*
X60000000Y-20000000D02*
X140000000Y-20000000D01*
X140000000Y-90000000D01*
X60000000Y-90000000D01*
X60000000Y-20000000D01*
M02*
