%TF.GenerationSoftware,KiCad,Pcbnew,8.0.7-8.0.7-0~ubuntu24.04.1*%
%TF.CreationDate,2025-01-06T19:00:17+09:00*%
%TF.ProjectId,TutorialBoard2025,5475746f-7269-4616-9c42-6f6172643230,rev?*%
%TF.SameCoordinates,Original*%
%TF.FileFunction,Copper,L2,Bot*%
%TF.FilePolarity,Positive*%
%FSLAX46Y46*%
G04 Gerber Fmt 4.6, Leading zero omitted, Abs format (unit mm)*
G04 Created by KiCad (PCBNEW 8.0.7-8.0.7-0~ubuntu24.04.1) date 2025-01-06 19:00:17*
%MOMM*%
%LPD*%
G01*
G04 APERTURE LIST*
%TA.AperFunction,ComponentPad*%
%ADD10R,1.800000X1.800000*%
%TD*%
%TA.AperFunction,ComponentPad*%
%ADD11C,1.800000*%
%TD*%
%TA.AperFunction,ComponentPad*%
%ADD12O,1.600000X1.600000*%
%TD*%
%TA.AperFunction,ComponentPad*%
%ADD13C,1.600000*%
%TD*%
%TA.AperFunction,ComponentPad*%
%ADD14R,1.600000X1.600000*%
%TD*%
%TA.AperFunction,ComponentPad*%
%ADD15C,2.000000*%
%TD*%
%TA.AperFunction,ComponentPad*%
%ADD16R,1.700000X1.700000*%
%TD*%
%TA.AperFunction,ComponentPad*%
%ADD17O,1.700000X1.700000*%
%TD*%
%TA.AperFunction,ComponentPad*%
%ADD18C,1.500000*%
%TD*%
%TA.AperFunction,Conductor*%
%ADD19C,1.000000*%
%TD*%
G04 APERTURE END LIST*
D10*
%TO.P,3,1,K*%
%TO.N,low3*%
X82040000Y-69000000D03*
D11*
%TO.P,3,2,A*%
%TO.N,high1*%
X79500000Y-69000000D03*
%TD*%
D10*
%TO.P,1,1,K*%
%TO.N,low1*%
X66040000Y-69000000D03*
D11*
%TO.P,1,2,A*%
%TO.N,high1*%
X63500000Y-69000000D03*
%TD*%
D10*
%TO.P,4,1,K*%
%TO.N,low4*%
X90040000Y-69000000D03*
D11*
%TO.P,4,2,A*%
%TO.N,high1*%
X87500000Y-69000000D03*
%TD*%
D10*
%TO.P,2,1,K*%
%TO.N,low2*%
X74040000Y-69000000D03*
D11*
%TO.P,2,2,A*%
%TO.N,high1*%
X71500000Y-69000000D03*
%TD*%
D10*
%TO.P,5,1,K*%
%TO.N,low5*%
X98040000Y-69000000D03*
D11*
%TO.P,5,2,A*%
%TO.N,high1*%
X95500000Y-69000000D03*
%TD*%
D10*
%TO.P,D12,1,K*%
%TO.N,low2*%
X74040000Y-85000000D03*
D11*
%TO.P,D12,2,A*%
%TO.N,high3*%
X71500000Y-85000000D03*
%TD*%
D10*
%TO.P,D14,1,K*%
%TO.N,low4*%
X90040000Y-85000000D03*
D11*
%TO.P,D14,2,A*%
%TO.N,high3*%
X87500000Y-85000000D03*
%TD*%
D10*
%TO.P,D11,1,K*%
%TO.N,low1*%
X66040000Y-85000000D03*
D11*
%TO.P,D11,2,A*%
%TO.N,high3*%
X63500000Y-85000000D03*
%TD*%
D10*
%TO.P,D15,1,K*%
%TO.N,low5*%
X98040000Y-85000000D03*
D11*
%TO.P,D15,2,A*%
%TO.N,high3*%
X95500000Y-85000000D03*
%TD*%
D10*
%TO.P,D13,1,K*%
%TO.N,low3*%
X82040000Y-85000000D03*
D11*
%TO.P,D13,2,A*%
%TO.N,high3*%
X79500000Y-85000000D03*
%TD*%
D12*
%TO.P,330,2*%
%TO.N,low2*%
X80000000Y-55160000D03*
D13*
%TO.P,330,1*%
%TO.N,Net-(U2-PD5)*%
X80000000Y-45000000D03*
%TD*%
D12*
%TO.P,330,2*%
%TO.N,low3*%
X85000000Y-55160000D03*
D13*
%TO.P,330,1*%
%TO.N,Net-(U2-PD4)*%
X85000000Y-45000000D03*
%TD*%
D12*
%TO.P,330,2*%
%TO.N,low4*%
X90000000Y-55160000D03*
D13*
%TO.P,330,1*%
%TO.N,Net-(U2-PD3)*%
X90000000Y-45000000D03*
%TD*%
D12*
%TO.P,330,2*%
%TO.N,low5*%
X95000000Y-55160000D03*
D13*
%TO.P,330,1*%
%TO.N,Net-(U2-PD2)*%
X95000000Y-45000000D03*
%TD*%
D12*
%TO.P,330,2*%
%TO.N,low1*%
X75000000Y-55160000D03*
D13*
%TO.P,330,1*%
%TO.N,Net-(U2-PD7)*%
X75000000Y-45000000D03*
%TD*%
D10*
%TO.P,D18,1,K*%
%TO.N,low3*%
X82040000Y-61000000D03*
D11*
%TO.P,D18,2,A*%
%TO.N,high4*%
X79500000Y-61000000D03*
%TD*%
D14*
%TO.P,U2,1,~{RESET}/PC6*%
%TO.N,Net-(U2-~{RESET}{slash}PC6)*%
X120000000Y-50000000D03*
D12*
%TO.P,U2,2,PD0*%
%TO.N,Net-(J1-Pin_4)*%
X120000000Y-52540000D03*
%TO.P,U2,3,PD1*%
%TO.N,Net-(J1-Pin_5)*%
X120000000Y-55080000D03*
%TO.P,U2,4,PD2*%
%TO.N,Net-(U2-PD2)*%
X120000000Y-57620000D03*
%TO.P,U2,5,PD3*%
%TO.N,Net-(U2-PD3)*%
X120000000Y-60160000D03*
%TO.P,U2,6,PD4*%
%TO.N,Net-(U2-PD4)*%
X120000000Y-62700000D03*
%TO.P,U2,7,VCC*%
%TO.N,VCC*%
X120000000Y-65240000D03*
%TO.P,U2,8,GND*%
%TO.N,GND*%
X120000000Y-67780000D03*
%TO.P,U2,9,XTAL1/PB6*%
%TO.N,Net-(U2-XTAL1{slash}PB6)*%
X120000000Y-70320000D03*
%TO.P,U2,10,XTAL2/PB7*%
%TO.N,Net-(U2-XTAL2{slash}PB7)*%
X120000000Y-72860000D03*
%TO.P,U2,11,PD5*%
%TO.N,Net-(U2-PD5)*%
X120000000Y-75400000D03*
%TO.P,U2,12,PD6*%
%TO.N,high4*%
X120000000Y-77940000D03*
%TO.P,U2,13,PD7*%
%TO.N,Net-(U2-PD7)*%
X120000000Y-80480000D03*
%TO.P,U2,14,PB0*%
%TO.N,unconnected-(U2-PB0-Pad14)*%
X120000000Y-83020000D03*
%TO.P,U2,15,PB1*%
%TO.N,high1*%
X127620000Y-83020000D03*
%TO.P,U2,16,PB2*%
%TO.N,high2*%
X127620000Y-80480000D03*
%TO.P,U2,17,PB3*%
%TO.N,high3*%
X127620000Y-77940000D03*
%TO.P,U2,18,PB4*%
%TO.N,unconnected-(U2-PB4-Pad18)*%
X127620000Y-75400000D03*
%TO.P,U2,19,PB5*%
%TO.N,unconnected-(U2-PB5-Pad19)*%
X127620000Y-72860000D03*
%TO.P,U2,20,AVCC*%
%TO.N,VCC*%
X127620000Y-70320000D03*
%TO.P,U2,21,AREF*%
%TO.N,unconnected-(U2-AREF-Pad21)*%
X127620000Y-67780000D03*
%TO.P,U2,22,GND*%
%TO.N,GND*%
X127620000Y-65240000D03*
%TO.P,U2,23,PC0*%
%TO.N,unconnected-(U2-PC0-Pad23)*%
X127620000Y-62700000D03*
%TO.P,U2,24,PC1*%
%TO.N,unconnected-(U2-PC1-Pad24)*%
X127620000Y-60160000D03*
%TO.P,U2,25,PC2*%
%TO.N,unconnected-(U2-PC2-Pad25)*%
X127620000Y-57620000D03*
%TO.P,U2,26,PC3*%
%TO.N,unconnected-(U2-PC3-Pad26)*%
X127620000Y-55080000D03*
%TO.P,U2,27,PC4*%
%TO.N,Net-(J2-Pin_4)*%
X127620000Y-52540000D03*
%TO.P,U2,28,PC5*%
%TO.N,Net-(J2-Pin_3)*%
X127620000Y-50000000D03*
%TD*%
D10*
%TO.P,D17,1,K*%
%TO.N,low2*%
X74040000Y-61000000D03*
D11*
%TO.P,D17,2,A*%
%TO.N,high4*%
X71500000Y-61000000D03*
%TD*%
D13*
%TO.P,22pF,2*%
%TO.N,GND*%
X107250000Y-74000000D03*
%TO.P,22pF,1*%
%TO.N,Net-(U2-XTAL2{slash}PB7)*%
X109750000Y-74000000D03*
%TD*%
D10*
%TO.P,D9,1,K*%
%TO.N,low4*%
X90040000Y-77000000D03*
D11*
%TO.P,D9,2,A*%
%TO.N,high2*%
X87500000Y-77000000D03*
%TD*%
D13*
%TO.P,22pF,2*%
%TO.N,GND*%
X107250000Y-69000000D03*
%TO.P,22pF,1*%
%TO.N,Net-(U2-XTAL1{slash}PB6)*%
X109750000Y-69000000D03*
%TD*%
D10*
%TO.P,D10,1,K*%
%TO.N,low5*%
X98040000Y-77000000D03*
D11*
%TO.P,D10,2,A*%
%TO.N,high2*%
X95500000Y-77000000D03*
%TD*%
D15*
%TO.P,SW1,1,1*%
%TO.N,Net-(U2-~{RESET}{slash}PC6)*%
X110000000Y-50000000D03*
X116500000Y-50000000D03*
%TO.P,SW1,2,2*%
%TO.N,GND*%
X110000000Y-54500000D03*
X116500000Y-54500000D03*
%TD*%
D16*
%TO.P,J1,1,Pin_1*%
%TO.N,GND*%
X135000000Y-40000000D03*
D17*
%TO.P,J1,2,Pin_2*%
%TO.N,unconnected-(J1-Pin_2-Pad2)*%
X132460000Y-40000000D03*
%TO.P,J1,3,Pin_3*%
%TO.N,VCC*%
X129920000Y-40000000D03*
%TO.P,J1,4,Pin_4*%
%TO.N,Net-(J1-Pin_4)*%
X127380000Y-40000000D03*
%TO.P,J1,5,Pin_5*%
%TO.N,Net-(J1-Pin_5)*%
X124840000Y-40000000D03*
%TO.P,J1,6,Pin_6*%
%TO.N,Net-(J1-Pin_6)*%
X122300000Y-40000000D03*
%TD*%
D16*
%TO.P,J2,1,Pin_1*%
%TO.N,GND*%
X132975000Y-57800000D03*
D17*
%TO.P,J2,2,Pin_2*%
%TO.N,VCC*%
X132975000Y-55260000D03*
%TO.P,J2,3,Pin_3*%
%TO.N,Net-(J2-Pin_3)*%
X132975000Y-52720000D03*
%TO.P,J2,4,Pin_4*%
%TO.N,Net-(J2-Pin_4)*%
X132975000Y-50180000D03*
%TD*%
D10*
%TO.P,D6,1,K*%
%TO.N,low1*%
X66040000Y-77000000D03*
D11*
%TO.P,D6,2,A*%
%TO.N,high2*%
X63500000Y-77000000D03*
%TD*%
D10*
%TO.P,D7,1,K*%
%TO.N,low2*%
X74040000Y-77000000D03*
D11*
%TO.P,D7,2,A*%
%TO.N,high2*%
X71500000Y-77000000D03*
%TD*%
D10*
%TO.P,D19,1,K*%
%TO.N,low4*%
X90040000Y-61000000D03*
D11*
%TO.P,D19,2,A*%
%TO.N,high4*%
X87500000Y-61000000D03*
%TD*%
D12*
%TO.P,10k,2*%
%TO.N,Net-(U2-~{RESET}{slash}PC6)*%
X105000000Y-45160000D03*
D13*
%TO.P,10k,1*%
%TO.N,VCC*%
X105000000Y-35000000D03*
%TD*%
D10*
%TO.P,D8,1,K*%
%TO.N,low3*%
X82040000Y-77000000D03*
D11*
%TO.P,D8,2,A*%
%TO.N,high2*%
X79500000Y-77000000D03*
%TD*%
D13*
%TO.P,0.1\u03BCF,2*%
%TO.N,Net-(J1-Pin_6)*%
X110500000Y-42500000D03*
%TO.P,0.1\u03BCF,1*%
%TO.N,Net-(U2-~{RESET}{slash}PC6)*%
X110500000Y-45000000D03*
%TD*%
D10*
%TO.P,D20,1,K*%
%TO.N,low5*%
X98040000Y-61000000D03*
D11*
%TO.P,D20,2,A*%
%TO.N,high4*%
X95500000Y-61000000D03*
%TD*%
D10*
%TO.P,D16,1,K*%
%TO.N,low1*%
X66040000Y-61000000D03*
D11*
%TO.P,D16,2,A*%
%TO.N,high4*%
X63500000Y-61000000D03*
%TD*%
D18*
%TO.P,Y1,1,1*%
%TO.N,Net-(U2-XTAL1{slash}PB6)*%
X114000000Y-69050000D03*
%TO.P,Y1,2,2*%
%TO.N,Net-(U2-XTAL2{slash}PB7)*%
X114000000Y-73950000D03*
%TD*%
D19*
%TO.N,low5*%
X98145000Y-68265000D02*
X98040000Y-68160000D01*
%TO.N,low1*%
X66040000Y-77000000D02*
X66040000Y-85000000D01*
X66040000Y-69000000D02*
X66040000Y-77000000D01*
X66040000Y-61000000D02*
X66040000Y-69000000D01*
X66340000Y-55160000D02*
X66000000Y-55500000D01*
X75000000Y-55160000D02*
X66340000Y-55160000D01*
X66000000Y-55500000D02*
X66040000Y-55540000D01*
X66040000Y-55540000D02*
X66040000Y-61000000D01*
%TO.N,low2*%
X74040000Y-77000000D02*
X74040000Y-85000000D01*
X74040000Y-69000000D02*
X74040000Y-77000000D01*
X74040000Y-61000000D02*
X74040000Y-69000000D01*
X77000000Y-58000000D02*
X74000000Y-58000000D01*
X77340000Y-55160000D02*
X77000000Y-55500000D01*
X80000000Y-55160000D02*
X77340000Y-55160000D01*
X74000000Y-58000000D02*
X74040000Y-58040000D01*
X77000000Y-55500000D02*
X77000000Y-58000000D01*
X74040000Y-58040000D02*
X74040000Y-61000000D01*
%TO.N,low3*%
X82040000Y-77000000D02*
X82040000Y-85000000D01*
X82040000Y-69000000D02*
X82040000Y-77000000D01*
X82040000Y-61000000D02*
X82040000Y-69000000D01*
X82340000Y-55160000D02*
X82000000Y-55500000D01*
X85000000Y-55160000D02*
X82340000Y-55160000D01*
X82000000Y-55500000D02*
X82040000Y-55540000D01*
X82040000Y-55540000D02*
X82040000Y-61000000D01*
%TO.N,low4*%
X90040000Y-77000000D02*
X90040000Y-85000000D01*
X90040000Y-69000000D02*
X90040000Y-77000000D01*
X90040000Y-61000000D02*
X90040000Y-69000000D01*
X90000000Y-55160000D02*
X90000000Y-60960000D01*
X90000000Y-60960000D02*
X90040000Y-61000000D01*
%TO.N,low5*%
X98040000Y-77000000D02*
X98040000Y-85000000D01*
X98040000Y-69000000D02*
X98040000Y-77000000D01*
X98040000Y-61000000D02*
X98040000Y-69000000D01*
X95000000Y-55160000D02*
X97660000Y-55160000D01*
X98040000Y-55540000D02*
X98040000Y-61000000D01*
X97660000Y-55160000D02*
X98040000Y-55540000D01*
%TO.N,Net-(U2-PD7)*%
X120000000Y-80480000D02*
X101980000Y-80480000D01*
X101500000Y-80000000D02*
X101500000Y-53000000D01*
X101980000Y-80480000D02*
X101500000Y-80000000D01*
X101500000Y-53000000D02*
X75000000Y-53000000D01*
X75000000Y-53000000D02*
X75000000Y-45000000D01*
%TO.N,Net-(U2-PD5)*%
X103000000Y-51500000D02*
X103000000Y-75000000D01*
X80000000Y-45000000D02*
X80000000Y-51500000D01*
X103000000Y-75000000D02*
X103500000Y-75500000D01*
X80000000Y-51500000D02*
X103000000Y-51500000D01*
X103500000Y-75500000D02*
X119900000Y-75500000D01*
X119900000Y-75500000D02*
X120000000Y-75400000D01*
%TO.N,Net-(U2-PD4)*%
X120000000Y-62700000D02*
X105200000Y-62700000D01*
X105200000Y-62700000D02*
X104500000Y-62000000D01*
X104500000Y-62000000D02*
X104500000Y-50000000D01*
X104500000Y-50000000D02*
X85000000Y-50000000D01*
X85000000Y-50000000D02*
X85000000Y-45000000D01*
%TO.N,Net-(U2-PD3)*%
X106000000Y-48500000D02*
X90000000Y-48500000D01*
X106160000Y-60160000D02*
X106000000Y-60000000D01*
X120000000Y-60160000D02*
X106160000Y-60160000D01*
X106000000Y-60000000D02*
X106000000Y-48500000D01*
X90000000Y-48500000D02*
X90000000Y-45000000D01*
%TO.N,Net-(U2-PD2)*%
X120000000Y-57620000D02*
X108120000Y-57620000D01*
X107500000Y-47000000D02*
X97500000Y-47000000D01*
X108120000Y-57620000D02*
X107500000Y-57000000D01*
X107500000Y-57000000D02*
X107500000Y-47000000D01*
X97500000Y-47000000D02*
X97500000Y-45000000D01*
X97500000Y-45000000D02*
X95000000Y-45000000D01*
%TO.N,Net-(J1-Pin_4)*%
X123500000Y-47000000D02*
X123500000Y-52500000D01*
X127380000Y-46620000D02*
X127000000Y-47000000D01*
X123500000Y-52500000D02*
X123460000Y-52540000D01*
X127380000Y-40000000D02*
X127380000Y-46620000D01*
X127000000Y-47000000D02*
X123500000Y-47000000D01*
X123460000Y-52540000D02*
X120000000Y-52540000D01*
%TO.N,GND*%
X127620000Y-65240000D02*
X124760000Y-65240000D01*
X124220000Y-67780000D02*
X124500000Y-67500000D01*
X120000000Y-67780000D02*
X124220000Y-67780000D01*
X124500000Y-67500000D02*
X124500000Y-65500000D01*
X124760000Y-65240000D02*
X124500000Y-65500000D01*
%TO.N,Net-(J2-Pin_4)*%
X130615000Y-52540000D02*
X132975000Y-50180000D01*
X127620000Y-52540000D02*
X130615000Y-52540000D01*
%TD*%
M02*
