M48
; DRILL file {KiCad 8.0.7-8.0.7-0~ubuntu24.04.1} date 2025-01-06T19:00:10+0900
; FORMAT={-:-/ absolute / inch / decimal}
; #@! TF.CreationDate,2025-01-06T19:00:10+09:00
; #@! TF.GenerationSoftware,Kicad,Pcbnew,8.0.7-8.0.7-0~ubuntu24.04.1
; #@! TF.FileFunction,Plated,1,2,PTH
FMAT,2
INCH
; #@! TA.AperFunction,Plated,PTH,ComponentDrill
T1C0.0315
; #@! TA.AperFunction,Plated,PTH,ComponentDrill
T2C0.0354
; #@! TA.AperFunction,Plated,PTH,ComponentDrill
T3C0.0394
; #@! TA.AperFunction,Plated,PTH,ComponentDrill
T4C0.0433
%
G90
G05
T1
X2.9528Y-1.7717
X2.9528Y-2.1717
X3.1496Y-1.7717
X3.1496Y-2.1717
X3.3465Y-1.7717
X3.3465Y-2.1717
X3.5433Y-1.7717
X3.5433Y-2.1717
X3.7402Y-1.7717
X3.7402Y-2.1717
X4.1339Y-1.378
X4.1339Y-1.778
X4.2224Y-2.7165
X4.2224Y-2.9134
X4.3209Y-2.7165
X4.3209Y-2.9134
X4.3504Y-1.6732
X4.3504Y-1.7717
X4.4882Y-2.7185
X4.4882Y-2.9114
X4.7244Y-1.9685
X4.7244Y-2.0685
X4.7244Y-2.1685
X4.7244Y-2.2685
X4.7244Y-2.3685
X4.7244Y-2.4685
X4.7244Y-2.5685
X4.7244Y-2.6685
X4.7244Y-2.7685
X4.7244Y-2.8685
X4.7244Y-2.9685
X4.7244Y-3.0685
X4.7244Y-3.1685
X4.7244Y-3.2685
X5.0244Y-1.9685
X5.0244Y-2.0685
X5.0244Y-2.1685
X5.0244Y-2.2685
X5.0244Y-2.3685
X5.0244Y-2.4685
X5.0244Y-2.5685
X5.0244Y-2.6685
X5.0244Y-2.7685
X5.0244Y-2.8685
X5.0244Y-2.9685
X5.0244Y-3.0685
X5.0244Y-3.1685
X5.0244Y-3.2685
T2
X2.5Y-2.4016
X2.5Y-2.7165
X2.5Y-3.0315
X2.5Y-3.3465
X2.6Y-2.4016
X2.6Y-2.7165
X2.6Y-3.0315
X2.6Y-3.3465
X2.815Y-2.4016
X2.815Y-2.7165
X2.815Y-3.0315
X2.815Y-3.3465
X2.915Y-2.4016
X2.915Y-2.7165
X2.915Y-3.0315
X2.915Y-3.3465
X3.1299Y-2.4016
X3.1299Y-2.7165
X3.1299Y-3.0315
X3.1299Y-3.3465
X3.2299Y-2.4016
X3.2299Y-2.7165
X3.2299Y-3.0315
X3.2299Y-3.3465
X3.4449Y-2.4016
X3.4449Y-2.7165
X3.4449Y-3.0315
X3.4449Y-3.3465
X3.5449Y-2.4016
X3.5449Y-2.7165
X3.5449Y-3.0315
X3.5449Y-3.3465
X3.7598Y-2.4016
X3.7598Y-2.7165
X3.7598Y-3.0315
X3.7598Y-3.3465
X3.8598Y-2.4016
X3.8598Y-2.7165
X3.8598Y-3.0315
X3.8598Y-3.3465
T3
X4.815Y-1.5748
X4.915Y-1.5748
X5.015Y-1.5748
X5.115Y-1.5748
X5.215Y-1.5748
X5.2352Y-1.9756
X5.2352Y-2.0756
X5.2352Y-2.1756
X5.2352Y-2.2756
X5.315Y-1.5748
T4
X4.3307Y-1.9685
X4.3307Y-2.1457
X4.5866Y-1.9685
X4.5866Y-2.1457
M30
